<svg width="95" height="71" viewBox="0 0 95 71" fill="none" xmlns="http://www.w3.org/2000/svg">
<path d="M5.04357 0.0240031C3.4749 0.27499 2.07019 1.13885 1.13845 2.42553C0.206711 3.71222 -0.175732 5.31634 0.0752546 6.88501C0.326241 8.45368 1.1901 9.85839 2.47679 10.7901C3.76347 11.7219 5.3676 12.1043 6.93626 11.8533H24.6802L25.7449 14.8107L30.5949 29.5973L35.4449 44.384C35.9181 45.9218 37.9291 47.3413 39.4669 47.3413H80.8695C82.5256 47.3413 84.4183 45.9218 84.8915 44.384L94.4733 14.8107C94.9464 13.2728 94.2367 11.8533 92.5806 11.8533H40.0584L35.5632 3.33621C35.0844 2.35863 34.3452 1.53213 33.4268 0.947726C32.5085 0.363322 31.4467 0.0436813 30.3583 0.0240031L6.69968 0.0240031C6.34552 -0.00800103 5.98919 -0.00800103 5.63504 0.0240031C5.39866 0.0097951 5.16165 0.0097951 4.92528 0.0240031L5.04357 0.0240031ZM42.4242 59.1706C39.112 59.1706 36.5096 61.7731 36.5096 65.0853C36.5096 68.3975 39.112 70.9999 42.4242 70.9999C45.7364 70.9999 48.3389 68.3975 48.3389 65.0853C48.3389 61.7731 45.7364 59.1706 42.4242 59.1706ZM77.9122 59.1706C74.6 59.1706 71.9975 61.7731 71.9975 65.0853C71.9975 68.3975 74.6 70.9999 77.9122 70.9999C81.2244 70.9999 83.8269 68.3975 83.8269 65.0853C83.8269 61.7731 81.2244 59.1706 77.9122 59.1706Z" fill="black"/>
</svg>
